# Blender 4.0.2
# www.blender.org
mtllib clutter_grass_1.mtl
o Plane
v -0.117749 0.001953 -0.000000
v 0.148528 0.001953 -0.000000
v -0.117749 0.323125 -0.000000
v 0.148528 0.323125 -0.000000
v 0.015390 0.001953 -0.133138
v 0.015390 0.001953 0.133138
v 0.015390 0.323125 -0.133138
v 0.015390 0.323125 0.133138
vn -0.0000 -0.0000 1.0000
vn -1.0000 -0.0000 -0.0000
vt 0.000000 0.000000
vt 1.000000 0.000000
vt 1.000000 1.000000
vt 0.000000 1.000000
s 0
f 1/1/1 2/2/1 4/3/1 3/4/1
f 5/1/2 6/2/2 8/3/2 7/4/2
