# Blender 4.0.2
# www.blender.org
mtllib branch_item_model.mtl
o Cylinder.002
v 0.027344 -0.554170 0.041985
v 0.031513 -0.095394 0.000248
v 0.010013 -0.534551 0.065577
v 0.015702 -0.095394 0.020920
v -0.012939 -0.512116 0.055398
v -0.008724 -0.095394 0.012179
v -0.017350 -0.501010 0.023774
v -0.008009 -0.095394 -0.013897
v 0.012933 -0.537679 0.024089
v 0.016859 -0.095394 -0.021269
v 0.051651 0.538183 -0.019025
v 0.058961 0.538183 -0.028583
v 0.040358 0.538183 -0.023066
v 0.040689 0.538183 -0.035121
v 0.052186 0.538183 -0.038529
v 0.017722 0.141418 0.002672
v 0.018308 0.141418 -0.018716
v 0.038707 0.141418 -0.024765
v 0.037758 0.141418 0.009842
v 0.050727 0.141418 -0.007115
v 0.026885 0.396214 -0.017663
v 0.045481 0.396214 -0.011007
v 0.027430 0.396214 -0.037514
v 0.046362 0.396214 -0.043128
v 0.057519 0.396214 -0.026746
v 0.029634 0.422414 -0.017816
v 0.046996 0.422414 -0.011602
v 0.030143 0.422414 -0.036349
v 0.047819 0.422414 -0.041591
v 0.058235 0.422414 -0.026296
v 0.080696 0.445102 -0.037941
v 0.083034 0.439973 -0.040547
v 0.084958 0.445102 -0.031682
v 0.087599 0.439973 -0.033845
v -0.007245 -0.074871 0.011423
v -0.006540 -0.074871 -0.014268
v 0.017961 -0.074871 -0.021532
v 0.016821 -0.074871 0.020035
v 0.032400 -0.074871 -0.000332
v -0.028724 -0.076503 0.002929
v -0.028634 -0.076529 -0.007341
v -0.027866 -0.064597 0.002490
v -0.027782 -0.064623 -0.007556
v 0.019032 0.158460 0.001427
v 0.038965 0.158460 0.008561
v 0.019615 0.158460 -0.019851
v 0.051868 0.158460 -0.008309
v 0.039909 0.158460 -0.025869
v 0.054732 0.157900 0.013853
v 0.059452 0.157792 0.008501
v 0.054771 0.165033 0.012752
v 0.059459 0.164925 0.007435
v -0.053214 -0.044727 0.006981
v -0.053165 -0.044741 0.001503
v -0.052756 -0.038376 0.006747
v -0.052711 -0.038390 0.001388
v 0.074150 0.182211 0.019903
v 0.075485 0.182173 0.018414
v 0.074163 0.184579 0.019537
v 0.075487 0.184541 0.018060
v 0.063503 0.173941 0.016858
v 0.066824 0.173864 0.013227
v 0.063477 0.169232 0.017584
v 0.066819 0.169154 0.013932
v 0.067472 0.177334 0.018059
v 0.067450 0.173391 0.018667
v 0.070139 0.177269 0.015134
v 0.070135 0.173326 0.015724
v 0.092487 0.458510 -0.045437
v 0.093516 0.456252 -0.046585
v 0.094363 0.458510 -0.042680
v 0.095527 0.456252 -0.043633
vn 0.8098 0.0511 0.5844
vn 0.8098 0.0512 0.5844
vn 0.8098 0.0511 0.5845
vn 0.8098 0.0512 0.5845
vn -0.3110 0.1219 0.9426
vn -0.3114 0.1204 0.9426
vn -0.3102 0.1222 0.9428
vn -0.3127 0.1222 0.9420
vn -0.9973 0.0312 0.0663
vn -0.9974 0.0314 0.0648
vn -0.9974 0.0307 0.0650
vn -0.9974 0.0314 0.0653
vn -0.9370 0.3486 -0.0218
vn -0.9371 0.3486 -0.0193
vn -0.9370 0.3486 -0.0235
vn -0.9369 0.3486 -0.0244
vn -0.1958 -0.1072 -0.9748
vn -0.1914 -0.1081 -0.9755
vn -0.1924 -0.1093 -0.9752
vn -0.1955 -0.1065 -0.9749
vn 0.7842 -0.0835 -0.6149
vn 0.7864 -0.0852 -0.6118
vn 0.7861 -0.0844 -0.6123
vn 0.7838 -0.0839 -0.6153
vn -0.2770 0.1541 -0.9484
vn -0.2782 0.1541 -0.9481
vn -0.2800 0.1541 -0.9476
vn -0.2796 0.1541 -0.9477
vn -0.3332 0.1166 0.9356
vn -0.3328 0.1166 0.9358
vn -0.3340 0.1166 0.9353
vn -0.3342 0.1166 0.9353
vn 0.8041 -0.2229 -0.5512
vn 0.8044 -0.2229 -0.5507
vn 0.8019 -0.2228 -0.5544
vn 0.8009 -0.2227 -0.5559
vn 0.7699 -0.2458 0.5890
vn 0.7694 -0.2458 0.5896
vn 0.7682 -0.2457 0.5911
vn 0.7697 -0.2458 0.5891
vn 0.7934 -0.0482 0.6068
vn 0.8396 -0.0877 -0.5361
vn 0.8256 -0.0579 -0.5613
vn 0.8253 -0.0579 -0.5618
vn 0.8252 -0.0579 -0.5619
vn -0.3127 0.0780 0.9466
vn -0.3367 0.0522 0.9402
vn -0.3370 0.0522 0.9400
vn -0.3373 0.0522 0.9399
vn -0.2621 0.0120 -0.9650
vn -0.2833 0.0360 -0.9584
vn -0.2838 0.0360 -0.9582
vn -0.2839 0.0360 -0.9582
vn -0.3489 0.0548 0.9355
vn -0.3921 0.0695 0.9173
vn -0.3717 0.0363 0.9276
vn -0.3819 0.0390 0.9234
vn -0.3361 0.0101 0.9418
vn 0.7813 0.1725 0.5998
vn 0.8129 0.1725 -0.5562
vn -0.2827 0.0101 -0.9592
vn -0.9954 -0.0915 -0.0268
vn 0.8165 0.0326 0.5765
vn 0.7945 -0.0102 0.6072
vn 0.7950 -0.0102 0.6066
vn 0.7953 -0.0101 0.6061
vn 0.8522 -0.0619 -0.5195
vn 0.8252 -0.0129 -0.5647
vn 0.8261 -0.0129 -0.5634
vn 0.8263 -0.0129 -0.5631
vn -0.2549 0.0914 0.9626
vn -0.3358 0.0019 0.9419
vn -0.3336 0.0020 0.9427
vn -0.3323 0.0020 0.9432
vn -0.2269 -0.0617 -0.9720
vn -0.2879 -0.0031 -0.9577
vn -0.2855 -0.0030 -0.9584
vn -0.2852 -0.0030 -0.9585
vn -0.9996 0.0290 -0.0025
vn -0.9996 0.0059 -0.0275
vn -0.9996 0.0059 -0.0278
vn -0.9996 0.0059 -0.0274
vn 0.7939 -0.0321 0.6072
vn 0.6900 -0.5505 -0.4699
vn -0.3367 0.0408 0.9407
vn -0.2835 0.0719 -0.9563
vn -0.9942 0.1041 -0.0273
vn 0.2833 -0.0624 0.9570
vn -0.5540 0.7421 0.3773
vn -0.0355 0.1301 -0.9909
vn -0.7406 -0.6705 -0.0444
vn -0.5725 0.7213 0.3898
vn -0.0051 0.0072 -1.0000
vn -0.1460 -0.9892 -0.0151
vn -0.0722 0.0254 0.9971
vn 0.9753 0.2194 0.0262
vn -0.2845 0.0260 -0.9583
vn -0.2843 0.0260 -0.9584
vn -0.2621 0.0048 -0.9650
vn -0.3367 0.0343 0.9410
vn -0.3366 0.0343 0.9410
vn -0.3131 0.0587 0.9479
vn 0.8262 -0.0220 -0.5630
vn 0.8264 -0.0220 -0.5627
vn 0.8417 -0.0510 -0.5375
vn 0.8263 -0.0220 -0.5628
vn 0.7942 -0.0171 0.6074
vn 0.7216 -0.6919 -0.0253
vn -0.0681 0.1261 -0.9897
vn -0.6628 0.7466 0.0577
vn 0.0771 -0.0187 0.9968
vn -0.6785 -0.7342 -0.0228
vn -0.6839 -0.7295 -0.0075
vn -0.6857 -0.7276 -0.0184
vn -0.6861 -0.7273 -0.0170
vn 0.9086 -0.3903 0.1486
vn -0.1226 0.1035 -0.9870
vn -0.8787 0.4723 0.0689
vn -0.2137 0.1419 0.9665
vn -0.2994 -0.0189 -0.9539
vn -0.3172 0.0177 -0.9482
vn -0.2993 0.0272 -0.9538
vn -0.2787 -0.0037 -0.9604
vn -0.9984 0.0497 -0.0274
vn -0.9984 0.0497 -0.0276
vn -0.9972 0.0751 -0.0024
vn -0.9984 0.0497 -0.0275
vn -0.2847 0.0168 -0.9585
vn -0.2857 0.0168 -0.9582
vn -0.2276 -0.0353 -0.9731
vn -0.2844 0.0168 -0.9586
vn -0.3365 0.0098 0.9416
vn -0.3369 0.0098 0.9415
vn -0.2547 0.0928 0.9626
vn -0.3356 0.0098 0.9420
vn 0.8260 -0.0442 -0.5619
vn 0.8253 -0.0442 -0.5629
vn 0.8501 -0.0942 -0.5181
vn 0.8258 -0.0442 -0.5622
vn 0.5569 -0.7014 0.4450
vn -0.5437 0.6261 -0.5589
vn -0.5396 0.6574 -0.5261
vn -0.5442 0.6254 -0.5592
vn -0.5465 0.6602 -0.5153
vn -0.2738 0.9233 -0.2695
vn -0.2684 0.9331 -0.2394
vn -0.2827 0.9181 -0.2780
vn -0.2798 0.9346 -0.2198
vn 0.9243 -0.0491 -0.3785
vn 0.8849 -0.0882 -0.4574
vn 0.9042 -0.0337 -0.4258
vn 0.9076 -0.0313 -0.4187
vn -0.3293 0.1907 0.9248
vn -0.3896 0.0888 0.9167
vn -0.2727 0.0352 0.9614
vn -0.2335 0.1229 0.9646
vn -0.0236 0.0081 -0.9997
vn -0.9803 -0.1973 -0.0094
vn -0.0547 0.0204 0.9983
vn 0.0239 0.9997 -0.0055
vn 0.2142 0.0143 0.9767
vn 0.1731 0.0386 0.9841
vn 0.1903 -0.0022 0.9817
vn 0.1775 0.0023 0.9841
vn -0.3316 -0.0164 -0.9433
vn -0.3467 0.0230 -0.9377
vn -0.3312 0.0297 -0.9431
vn -0.3147 -0.0080 -0.9492
vn -0.7910 -0.6116 -0.0137
vn -0.7940 -0.6079 0.0028
vn -0.7973 -0.6036 -0.0085
vn -0.7973 -0.6035 -0.0079
vn 0.7443 0.0600 0.6652
vn 0.7442 0.0600 0.6653
vn 0.7674 0.0966 0.6339
vn 0.7448 0.0600 0.6646
vn -0.3978 0.2137 0.8923
vn -0.4337 0.1142 0.8938
vn -0.3146 0.0769 0.9461
vn -0.2824 0.1703 0.9440
vn 0.6221 -0.0785 -0.7790
vn 0.5566 -0.1360 -0.8195
vn 0.5758 -0.0780 -0.8138
vn 0.5968 -0.0693 -0.7994
vn 0.6144 -0.5457 0.5698
vn 0.5764 -0.6228 0.5290
vn 0.7174 -0.0693 -0.6932
vn 0.6556 -0.1228 -0.7451
vn 0.6759 -0.0642 -0.7341
vn 0.6921 -0.0574 -0.7195
vn -0.5587 0.2035 0.8040
vn -0.5961 0.1020 0.7964
vn -0.4901 0.0638 0.8694
vn -0.4574 0.1579 0.8751
vn -0.4846 0.7176 -0.5002
vn -0.4814 0.7450 -0.4618
vn -0.4861 0.7159 -0.5012
vn -0.4870 0.7464 -0.4536
vn 0.5488 -0.6581 0.5156
vn 0.6149 -0.0843 -0.7841
vn 0.5443 -0.1348 -0.8280
vn 0.5677 -0.0767 -0.8197
vn 0.5854 -0.0705 -0.8077
vn -0.4271 0.2153 0.8782
vn -0.4696 0.1152 0.8753
vn -0.3573 0.0709 0.9313
vn -0.3189 0.1651 0.9333
vn -0.4673 0.7330 -0.4943
vn -0.4601 0.7605 -0.4582
vn -0.4675 0.7328 -0.4944
vn -0.4667 0.7629 -0.4474
vn 0.6889 0.5525 -0.4692
vn -0.6205 0.1116 -0.7762
vn 0.6641 -0.5954 -0.4523
vn 0.7126 0.0726 0.6978
vt -0.770960 2.045988
vt -0.667969 0.296800
vt -0.566690 0.308104
vt -0.593089 2.008606
vt -0.566690 2.012944
vt -0.413544 0.305687
vt -0.312220 0.315303
vt -0.372014 1.798612
vt 1.069254 0.798429
vt 1.043001 -0.673505
vt 1.144304 -0.684568
vt 1.254304 0.901227
vt 1.401461 -0.220343
vt 1.329027 -0.220441
vt 1.342633 -0.684409
vt 1.389745 -0.684346
vt 0.646219 1.913201
vt 0.550266 0.320862
vt 0.650935 0.306490
vt 0.832532 1.994950
vt 0.864694 1.208137
vt 0.832532 -0.430305
vt 0.934419 -0.432377
vt 1.038392 1.258740
vt 0.708718 -0.225735
vt 0.637163 -0.215520
vt 0.711825 -0.676376
vt 0.758365 -0.683020
vt -0.423896 -0.216511
vt -0.495917 -0.223345
vt -0.566690 -0.677888
vt -0.519848 -0.673442
vt 1.388187 1.003869
vt 1.316061 1.010560
vt 1.364548 0.556680
vt 1.411460 0.552329
vt -0.613021 -0.222865
vt -0.685010 -0.230900
vt -0.699650 -0.684297
vt -0.652829 -0.679071
vt -0.567379 0.300210
vt -0.668222 0.288954
vt -0.671059 0.201130
vt -0.575090 0.211841
vt 0.935384 -0.440141
vt 0.833935 -0.438078
vt 0.849642 -0.525089
vt 0.946186 -0.527053
vt -0.313880 0.307396
vt -0.414769 0.297822
vt -0.428478 0.209776
vt -0.332467 0.218887
vt 0.651794 0.298577
vt 0.551558 0.312887
vt 0.566020 0.223618
vt 0.661411 0.210000
vt -0.577214 0.187499
vt -0.671840 0.176938
vt -0.682032 -0.138683
vt -0.604925 -0.130078
vt 0.949162 -0.550994
vt 0.853968 -0.549057
vt 0.910412 -0.861759
vt 0.987982 -0.863337
vt -0.337587 0.194507
vt -0.432254 0.185523
vt -0.481522 -0.130896
vt -0.404381 -0.123575
vt 0.664060 0.185601
vt 0.570004 0.199028
vt 0.621978 -0.121786
vt 0.698621 -0.132728
vt 1.411999 0.197034
vt 1.316787 0.196905
vt 1.326259 -0.126075
vt 1.403843 -0.125970
vt 1.006652 -1.045343
vt 1.038392 -1.045988
vt -0.770960 -0.305598
vt -0.756198 -0.320493
vt 1.374583 1.053245
vt 1.350457 1.157624
vt 1.326512 1.140159
vt 0.818887 -0.320898
vt 0.832532 -0.305265
vt 1.181613 1.013876
vt 1.038392 0.995221
vt 1.316061 0.964898
vt 1.096881 -0.610090
vt -0.162947 0.341062
vt 1.508024 0.629409
vt 1.412624 0.221792
vt 1.316061 0.221661
vt -0.675975 0.176477
vt -0.574174 0.187838
vt -0.432525 0.183782
vt -0.428414 0.210184
vt 0.946137 -0.526655
vt 0.949375 -0.552709
vt -0.571907 0.212196
vt -0.675361 0.200650
vt -0.670781 0.201161
vt -0.575454 0.211800
vt 0.949157 -0.550954
vt 0.946203 -0.527191
vt -0.428500 0.209635
vt -0.432248 0.185563
vt -0.577565 0.187460
vt -0.671575 0.176968
vt 1.341709 1.167751
vt 1.316061 1.149043
s 0
f 1/1/1 2/2/2 4/3/3 3/4/4
f 3/5/5 4/6/6 6/7/7 5/8/8
f 5/9/9 6/10/10 8/11/11 7/12/12
f 28/13/13 26/14/14 13/15/15 14/16/16
f 7/17/17 8/18/18 10/19/19 9/20/20
f 9/21/21 10/22/22 2/23/23 1/24/24
f 29/25/25 28/26/26 14/27/27 15/28/28
f 26/29/29 27/30/30 11/31/31 13/32/32
f 30/33/33 29/34/34 15/35/35 12/36/36
f 27/37/37 30/38/38 12/39/39 11/40/40
f 38/41/41 39/42/41 20/43/41 19/44/41
f 39/45/42 37/46/43 18/47/44 20/48/45
f 35/49/46 38/50/47 19/51/48 16/52/49
f 37/53/50 36/54/51 17/55/52 18/56/53
f 6/7/54 35/49/55 42/49/56 40/7/57
f 13/32/58 11/40/59 12/36/60 15/28/61 14/16/62
f 45/57/63 47/58/64 25/59/65 22/60/66
f 47/61/67 48/62/68 24/63/69 25/64/70
f 44/65/71 45/66/72 22/67/73 21/68/74
f 48/69/75 46/70/76 23/71/77 24/72/78
f 46/73/79 44/74/80 21/75/81 23/76/82
f 22/60/83 25/59/83 30/38/83 27/37/83
f 25/64/84 24/63/84 32/77/84 34/78/84
f 21/68/85 22/67/85 27/30/85 26/29/85
f 24/72/86 23/71/86 28/26/86 29/25/86
f 23/76/87 21/75/87 26/14/87 28/13/87
f 30/38/88 25/59/88 34/79/88 33/80/88
f 29/34/89 30/81/89 33/82/89 31/83/89
f 24/72/90 29/25/90 31/84/90 32/85/90
f 1/86/91 3/87/91 5/9/91 7/12/91 9/88/91
f 31/83/92 33/82/92 71/82/92 69/83/92
f 17/55/93 36/89/94 35/90/95 16/91/96
f 10/19/97 8/18/98 36/54/99 37/53/98
f 6/7/100 4/6/101 38/50/102 35/49/100
f 2/23/103 10/22/104 37/46/105 39/45/106
f 4/3/107 2/2/107 39/42/107 38/41/107
f 42/90/108 43/89/109 56/89/110 55/90/111
f 8/11/112 6/10/113 40/10/114 41/11/115
f 35/90/116 36/89/117 43/89/118 42/90/119
f 36/54/120 8/18/121 41/18/122 43/54/123
f 17/92/124 16/93/125 44/74/126 46/73/127
f 18/56/128 17/55/129 46/70/130 48/69/131
f 16/52/132 19/51/133 45/66/134 44/65/135
f 20/48/136 18/47/137 48/62/138 47/61/139
f 19/44/140 20/43/140 50/43/140 49/44/140
f 67/94/141 65/95/142 59/57/143 60/58/144
f 47/58/145 45/57/146 51/57/147 52/58/148
f 20/48/149 47/61/150 52/61/151 50/48/152
f 45/66/153 19/51/154 49/51/155 51/66/156
f 56/89/157 54/11/158 53/7/159 55/90/160
f 40/7/161 42/49/162 55/49/163 53/7/164
f 43/54/165 41/18/166 54/18/167 56/54/168
f 41/11/169 40/10/170 53/10/171 54/11/172
f 57/44/173 58/43/174 60/58/175 59/57/176
f 65/96/177 66/97/178 57/51/179 59/66/180
f 68/98/181 67/99/182 60/61/183 58/48/184
f 66/100/185 68/101/185 58/43/185 57/44/185
f 49/44/186 50/43/186 64/102/186 63/103/186
f 50/48/187 52/61/188 62/104/189 64/105/190
f 51/66/191 49/51/192 63/106/193 61/107/194
f 52/58/195 51/57/196 61/108/197 62/109/198
f 63/103/199 64/102/199 68/101/199 66/100/199
f 64/105/200 62/104/201 67/99/202 68/98/203
f 61/107/204 63/106/205 66/97/206 65/96/207
f 62/109/208 61/108/209 65/95/210 67/94/211
f 72/110/212 70/111/212 69/83/212 71/82/212
f 32/85/213 31/84/213 69/84/213 70/85/213
f 34/78/214 32/77/214 70/77/214 72/78/214
f 33/80/215 34/79/215 72/79/215 71/80/215
