# Blender 4.0.2
# www.blender.org
mtllib log_item_model.mtl
o Cylinder.003
v -0.006981 -0.445036 -0.153352
v 0.007938 0.473159 -0.157149
v 0.124648 -0.447418 -0.097239
v 0.109954 0.473159 -0.108021
v 0.156815 -0.435863 0.040753
v 0.131267 0.464622 -0.003954
v 0.072717 -0.444359 0.144182
v 0.064878 0.452331 0.083415
v -0.049254 -0.437256 0.141664
v -0.051829 0.474899 0.092775
v -0.155997 -0.465000 0.035605
v -0.122426 0.474899 0.004249
v -0.123391 -0.441207 -0.100935
v -0.095341 0.479007 -0.113385
v 0.006870 -0.040820 -0.170759
v 0.117166 -0.040820 -0.117643
v 0.144407 -0.040820 0.001706
v 0.068080 -0.040820 0.097417
v -0.054339 -0.040820 0.097417
v -0.130666 -0.040820 0.001706
v -0.103425 -0.040820 -0.117643
v 0.006949 -0.002779 -0.169752
v 0.116632 -0.002779 -0.116931
v 0.143434 -0.003410 0.001287
v 0.067843 -0.004320 0.096381
v -0.054153 -0.002650 0.097074
v -0.130056 -0.002650 0.001895
v -0.102827 -0.002346 -0.117328
v -0.078803 -0.444936 0.112304
v -0.071371 0.474899 0.068269
v -0.039206 -0.443976 -0.138842
v -0.020651 0.474778 -0.145034
v -0.023662 -0.040820 -0.156055
v -0.075468 -0.040820 0.070923
v 0.020526 0.459716 0.028937
v -0.023439 -0.002659 -0.155240
v -0.075165 -0.002650 0.070726
v -0.011663 0.022481 -0.216173
v -0.028833 0.022549 -0.207974
v -0.023678 0.000717 -0.191377
v -0.009501 0.007603 -0.215888
vn 0.4338 0.0229 -0.9007
vn 0.9773 0.0203 -0.2107
vn 0.7881 0.0250 0.6150
vn 0.0439 0.0185 0.9989
vn -0.7818 0.0094 0.6235
vn 0.1041 0.9945 0.0088
vn -0.9746 0.0168 -0.2232
vn -0.4108 0.0234 -0.9114
vn -0.0593 -0.9935 0.0970
vn -0.4222 -0.0235 -0.9062
vn -0.9738 0.0397 -0.2240
vn -0.7437 0.0860 0.6630
vn -0.0070 0.1130 0.9936
vn 0.7742 0.0839 0.6273
vn 0.9743 0.0075 -0.2252
vn 0.4107 -0.0457 -0.9106
vn 0.0843 0.9942 0.0661
vn 0.1000 -0.9946 0.0274
vn 0.0070 -1.0000 0.0004
vn -0.9748 0.0168 -0.2225
vn 0.0030 0.0185 0.9998
vn 0.7820 0.0251 0.6228
vn 0.9749 0.0203 -0.2217
vn -0.4323 0.0179 -0.9015
vn 0.1164 -0.9923 -0.0417
vn -0.0103 0.9961 0.0874
vn -0.7435 0.0695 0.6651
vn -0.4222 -0.0196 -0.9063
vn -0.4110 0.0179 -0.9115
vn 0.1680 0.9848 -0.0438
vn 0.9440 0.0416 -0.3272
vn -0.9966 -0.0822 -0.0011
vn -0.4488 -0.6398 -0.6240
vn 0.1975 0.8921 0.4063
vn -0.6059 -0.4289 -0.6700
vt 0.944210 0.363774
vt 0.877008 1.189336
vt 0.750769 1.178983
vt 0.808483 0.352643
vt 0.567225 1.154191
vt 0.598008 0.340070
vt 0.565753 0.368268
vt 0.567225 1.182366
vt 0.448935 1.156741
vt 0.431808 0.362199
vt 0.246808 1.200889
vt 0.219701 0.371053
vt -0.488999 0.414728
vt -0.478993 -0.416150
vt -0.384181 -0.415852
vt -0.387061 0.415049
vt 1.353008 0.369784
vt 1.091958 0.183474
vt 1.293074 0.123236
vt 1.408680 0.203642
vt -0.174444 -0.421793
vt -0.174594 0.415742
vt -0.086276 0.417061
vt -0.098284 -0.413742
vt -0.069132 -0.410660
vt -0.052470 0.417566
vt 1.027934 -0.026892
vt 1.027934 -0.275415
vt 1.226928 -0.421793
vt -0.123350 1.184706
vt -0.085317 0.483466
vt -0.051138 0.483765
vt -0.089017 1.186857
vt -0.457018 1.219079
vt -0.387290 0.481462
vt -0.174606 0.482685
vt -0.213043 1.179087
vt 0.155180 -0.397368
vt 0.181466 0.308055
vt 0.087243 0.316754
vt 0.021929 -0.421793
vt 0.417907 -0.406587
vt 0.430439 0.298692
vt 0.217534 0.304725
vt 0.206187 -0.388019
vt 0.567225 -0.387040
vt 0.565636 0.303197
vt 0.814458 -0.421793
vt 0.813095 0.286595
vt 0.600468 0.274997
vt 0.567225 -0.415174
vt 0.964859 -0.404903
vt 0.949581 0.297788
vt 1.045658 0.317009
vt 1.073151 0.014667
vt 1.529037 -0.160916
vt 1.502160 -0.093047
vt 1.449813 -0.357102
vt -0.489800 0.481139
vt -0.529037 0.481016
vt -0.528020 0.414606
vt 1.191278 0.123236
vt 1.431951 0.084255
vt 1.122947 0.538309
vt 1.027934 0.368122
vt 1.452933 0.441100
vt 1.306374 0.564063
vt 1.452933 0.234418
vt -0.515287 -0.416265
vt 1.027934 0.386654
vt 1.027912 0.412653
vt 0.002829 0.373645
vt -0.024337 0.411511
vt 1.027934 0.666789
vt 1.086342 0.658864
vt 1.064974 0.714944
vt 1.027934 0.747483
vt 1.027934 0.564063
vt 1.086405 0.566512
vt 1.086405 0.658864
vt 1.053368 0.657482
vt 0.021929 0.399827
vt 0.021929 0.373931
s 0
usemtl Material.008
f 22/1/1 2/2/1 4/3/1 23/4/1
f 23/4/2 4/3/2 6/5/2 24/6/2
f 24/7/3 6/8/3 8/9/3 25/10/3
f 25/10/4 8/9/4 10/11/4 26/12/4
f 37/13/5 30/14/5 12/15/5 27/16/5
f 27/16/7 12/15/7 14/21/7 28/22/7
f 36/23/8 32/24/8 2/25/8 22/26/8
f 31/30/10 33/31/10 15/32/10 1/33/10
f 11/34/11 20/35/11 21/36/11 13/37/11
f 29/38/12 34/39/12 20/40/12 11/41/12
f 7/42/13 18/43/13 19/44/13 9/45/13
f 5/46/14 17/47/14 18/43/14 7/42/14
f 3/48/15 16/49/15 17/50/15 5/51/15
f 1/52/16 15/53/16 16/49/16 3/48/16
f 20/35/20 27/16/20 28/22/20 21/36/20
f 34/59/5 37/13/5 27/16/5 20/35/5
f 18/43/21 25/10/21 26/12/21 19/44/21
f 17/47/22 24/7/22 25/10/22 18/43/22
f 16/49/23 23/4/23 24/6/23 17/50/23
f 15/53/1 22/1/1 23/4/1 16/49/1
f 19/60/5 26/61/5 37/13/5 34/59/5
f 21/36/24 28/22/24 36/23/24 33/31/24
f 9/45/27 19/44/27 34/39/27 29/38/27
f 13/37/28 21/36/28 33/31/28 31/30/28
f 28/22/29 14/21/29 32/24/29 36/23/29
f 26/61/5 10/69/5 30/14/5 37/13/5
f 22/1/31 15/53/31 41/70/31 38/71/31
f 33/31/32 36/23/32 39/72/32 40/73/32
f 15/74/33 33/75/33 40/76/33 41/77/33
f 36/78/34 22/79/34 38/80/34 39/81/34
usemtl Material.009
f 35/17/6 14/18/6 12/19/6 30/20/6
f 1/27/9 3/28/9 5/29/9
f 35/17/17 32/54/17 14/18/17
f 31/55/18 1/27/18 9/56/18 29/57/18
f 9/56/19 1/27/19 5/29/19 7/58/19
f 13/62/25 31/55/25 29/57/25 11/63/25
f 4/64/26 2/65/26 32/54/26 35/17/26 8/66/26 6/67/26
f 8/66/30 35/17/30 30/20/30 10/68/30
f 41/82/35 40/73/35 39/72/35 38/83/35
