# Blender 4.0.2
# www.blender.org
mtllib pebble_item_model.mtl
o Cube.001
v -0.008913 -0.069105 0.033868
v -0.015372 0.041419 0.025392
v -0.056559 -0.023513 0.029370
v -0.053374 -0.043541 -0.021967
v -0.042489 -0.004323 -0.062681
v 0.018800 -0.008691 -0.081582
v 0.038766 0.036701 -0.034990
v 0.056177 -0.035854 -0.044417
v 0.071718 -0.004493 -0.017823
v 0.079586 0.041220 -0.008559
v 0.077815 -0.012010 0.028434
v 0.054455 -0.048527 0.020650
v 0.047007 0.026271 0.069086
v 0.048196 -0.029272 0.058821
v 0.010618 0.018660 0.075319
v -0.013763 -0.027314 0.076035
v -0.030640 -0.042267 -0.076839
v -0.009312 -0.059035 -0.039417
v 0.024354 -0.055547 -0.051274
v 0.014330 0.057615 -0.010168
v 0.044332 0.060141 0.042053
vn -0.5442 -0.6466 0.5346
vn -0.5531 -0.6392 0.5343
vn -0.4225 -0.7519 0.5061
vn -0.7098 0.7043 -0.0110
vn -0.7156 0.6941 -0.0787
vn -0.7222 0.6841 -0.1020
vn -0.9226 0.3140 -0.2240
vn -0.9328 0.3016 -0.1974
vn -0.9577 0.2585 -0.1266
vn 0.6344 -0.7660 -0.1038
vn 0.6352 -0.7604 -0.1352
vn 0.6349 -0.7619 -0.1282
vn 0.9057 -0.3439 0.2479
vn 0.9071 -0.3412 0.2466
vn 0.8956 -0.3636 0.2565
vn 0.8149 0.2431 0.5262
vn 0.8188 0.2335 0.5245
vn 0.8185 0.2341 0.5246
vn 0.7036 0.0838 0.7057
vn 0.6606 0.0668 0.7478
vn 0.6304 0.0463 0.7749
vn 0.1868 -0.7809 0.5961
vn 0.2478 -0.7492 0.6142
vn 0.2919 -0.7307 0.6172
vn 0.1011 -0.2657 0.9587
vn 0.1030 -0.2667 0.9582
vn 0.4718 -0.5849 -0.6598
vn 0.4535 -0.5895 -0.6685
vn 0.4639 -0.5867 -0.6637
vn -0.0529 -0.9925 -0.1106
vn -0.0361 -0.9824 -0.1832
vn -0.0563 -0.9865 -0.1536
vn 0.7391 -0.6706 -0.0638
vn 0.7381 -0.6720 -0.0604
vn 0.7092 -0.7050 -0.0035
vn 0.7139 0.6042 0.3539
vn 0.8102 0.5367 0.2357
vn 0.8731 0.4787 0.0926
vn -0.7174 0.5441 0.4351
vn -0.8417 0.3841 0.3794
vn -0.8366 0.3532 0.4188
vn -0.8179 -0.1143 0.5639
vn -0.8020 -0.1128 0.5866
vn -0.7166 -0.1182 0.6874
vn -0.8991 0.4168 -0.1341
vn -0.9024 0.4167 -0.1095
vn -0.8994 0.4169 -0.1317
vn -0.3650 0.7317 -0.5756
vn -0.6971 0.4346 -0.5702
vn -0.4006 0.5824 -0.7073
vn 0.9183 0.0837 -0.3868
vn 0.5902 -0.4309 -0.6826
vn 0.5856 -0.4350 -0.6840
vn 0.5835 -0.4368 -0.6846
vn 0.8313 0.1913 0.5218
vn 0.8706 0.1752 0.4598
vn 0.8510 0.1814 0.4928
vn 0.7765 -0.2239 0.5890
vn 0.7432 -0.2415 0.6239
vn 0.7529 -0.2362 0.6143
vn 0.1075 0.0049 0.9942
vn 0.1106 0.0057 0.9938
vn 0.1012 0.0032 0.9949
vn 0.1240 0.8984 0.4212
vn -0.1203 0.9697 0.2127
vn 0.2533 -0.6203 0.7423
vn 0.2415 -0.6180 0.7482
vn 0.2422 -0.6181 0.7478
vn -0.8338 0.1558 0.5296
vn -0.8590 0.2216 0.4616
vn -0.8424 0.1692 0.5116
vn 0.5314 -0.5857 -0.6120
vn 0.5333 -0.5810 -0.6149
vn 0.5355 -0.5751 -0.6185
vn -0.0047 -0.9904 -0.1385
vn -0.0121 -0.9825 -0.1859
vn -0.0067 -0.9943 -0.1063
vn -0.2005 0.8528 -0.4822
vn -0.2631 0.8724 -0.4119
vn -0.2059 0.8574 -0.4717
vn 0.1140 0.7751 -0.6215
vn 0.1152 0.7758 -0.6204
vn 0.1007 0.7695 -0.6307
vn -0.6618 0.7218 -0.2026
vn -0.6587 0.7297 -0.1835
vn -0.6331 0.7568 -0.1625
vn 0.4082 0.8681 -0.2825
vn 0.2665 0.9636 -0.0228
vn -0.1293 0.8090 0.5734
vn 0.2612 0.8764 0.4045
vn 0.1351 0.9094 0.3933
vn 0.2961 0.8630 0.4093
vn 0.2677 -0.9576 -0.1067
vn 0.2572 -0.9460 0.1974
vn 0.5494 -0.8258 -0.1277
vn -0.2782 -0.9587 0.0587
vn -0.1169 -0.9236 -0.3650
vn -0.4738 -0.8766 -0.0840
vn 0.6497 0.4548 -0.6092
vn 0.7349 -0.5901 -0.3341
vn 0.9050 0.3609 -0.2253
vn 0.6906 -0.3086 -0.6541
vn 0.2223 0.3795 -0.8981
vn 0.8112 0.2411 -0.5328
vn -0.3914 0.0526 -0.9187
vt 0.448990 0.026596
vt 0.475512 0.067406
vt 0.375618 0.041868
vt 0.514761 0.120570
vt 0.579487 0.144975
vt 0.542424 0.202053
vt 0.490695 0.159189
vt 0.478169 0.228083
vt 0.444321 0.674993
vt 0.379687 0.701299
vt 0.431545 0.612980
vt 0.471383 0.701373
vt 0.436189 0.707727
vt 0.585825 0.673807
vt 0.581581 0.765283
vt 0.549039 0.716262
vt 0.548054 0.818043
vt 0.500957 0.770515
vt 0.397495 0.802361
vt 0.493139 0.872758
vt 0.399223 0.905586
vt 0.510531 0.897799
vt 0.472145 0.911206
vt 0.327417 0.500701
vt 0.296565 0.538736
vt 0.290965 0.498744
vt 0.320778 0.566741
vt 0.207548 0.715574
vt 0.253636 0.625320
vt 0.377530 0.620570
vt 0.313694 0.720450
vt 0.291812 0.696275
vt 0.692118 0.649721
vt 0.636722 0.657186
vt 0.635058 0.615294
vt 0.827557 0.719897
vt 0.870879 0.712135
vt 0.821773 0.749472
vt 0.515865 0.016674
vt 0.512778 0.308052
vt 0.535078 0.354262
vt 0.481936 0.315584
vt 0.507053 0.541043
vt 0.478319 0.600244
vt 0.457480 0.558911
vt 0.407206 0.530973
vt 0.399245 0.562943
vt 0.364172 0.573275
vt 0.622357 0.731689
vt 0.447967 0.772054
vt 0.494320 0.733706
vt 0.484874 0.838705
vt 0.593539 0.831094
vt 0.587928 0.867775
vt 0.670537 0.618775
vt 0.769548 0.622224
vt 0.525413 0.990385
vt 0.578860 0.942677
vt 0.534675 1.000000
vt 0.203568 0.695287
vt 0.756550 0.514306
vt 0.817991 0.512979
vt 0.791493 0.552696
vt 0.718017 0.531594
vt 0.758472 0.570991
vt 0.778345 0.628794
vt 0.788488 0.713759
vt 0.701543 0.669082
vt 0.703592 0.695726
vt 0.222152 0.555672
vt 0.543654 0.675880
s 0
f 1/1/1 3/2/2 4/3/3
f 3/4/4 2/5/5 5/6/6
f 4/7/7 5/6/8 17/8/9
f 9/9/10 12/10/11 8/11/12
f 11/12/13 12/13/14 9/9/15
f 10/14/16 13/15/17 11/16/18
f 11/16/19 13/17/20 14/18/21
f 12/19/22 14/20/23 1/21/24
f 14/20/25 15/22/26 16/23/25
f 6/24/27 18/25/28 17/26/29
f 19/27/30 1/28/31 18/29/32
f 8/30/33 12/31/34 19/32/35
f 21/33/36 10/34/37 7/35/38
s 1
f 2/36/39 3/37/40 15/38/41
s 0
f 1/1/42 16/39/43 3/2/44
f 4/7/45 3/4/46 5/6/47
s 1
f 5/40/48 6/41/49 17/42/50
s 0
f 6/43/51 9/44/51 8/45/51
f 6/46/52 8/47/53 19/48/54
f 10/14/55 21/49/56 13/15/57
f 12/50/58 11/51/59 14/18/60
f 14/52/61 13/53/62 15/54/63
s 1
f 21/33/64 20/55/65 2/56/39
s 0
f 1/21/66 14/20/67 16/23/68
f 16/57/69 15/58/70 3/59/71
f 6/24/72 19/27/73 18/25/74
f 18/29/75 1/28/76 4/60/77
f 6/61/78 5/62/79 20/63/80
f 7/64/81 6/61/82 20/65/83
f 20/65/84 5/62/85 2/66/86
s 1
f 15/67/41 21/68/64 2/66/39
s 0
f 20/55/87 21/33/88 7/35/89
f 21/68/90 15/67/91 13/69/92
f 1/28/93 19/32/94 12/31/95
f 18/29/96 4/60/97 17/70/98
f 9/9/99 7/35/100 10/14/101 11/71/102
f 9/9/103 6/61/104 7/35/105
