# Blender 4.0.2
# www.blender.org
mtllib sack_item_model.mtl
o Sphere
v 0.000000 -0.021696 -0.147597
v 0.024155 0.055833 -0.101450
v 0.068592 -0.021696 -0.130691
v 0.059402 -0.069482 -0.113182
v 0.000000 -0.078237 -0.077281
v 0.090386 0.041399 -0.067624
v 0.121470 -0.021696 -0.083845
v 0.105196 -0.069482 -0.072612
v 0.033395 0.142072 -0.014561
v 0.123200 0.045956 -0.009414
v 0.146521 -0.021696 -0.017791
v 0.130144 -0.069633 0.010489
v 0.115818 0.050207 0.048855
v 0.138006 -0.021696 0.052339
v 0.076124 -0.078121 -0.004263
v 0.097875 -0.021696 0.110478
v 0.084762 -0.069482 0.095677
v 0.031756 -0.077420 0.067790
v 0.020494 0.140226 0.016168
v 0.042823 0.050199 0.113633
v 0.035322 -0.021696 0.143308
v 0.030590 -0.069482 0.124109
v -0.015207 0.141026 0.005872
v -0.035322 -0.021696 0.143308
v -0.030590 -0.069482 0.124109
v -0.049906 -0.078041 0.056332
v -0.038250 0.049475 0.115623
v -0.097875 -0.021696 0.110478
v -0.084762 -0.069482 0.095677
v -0.114250 0.048363 0.047870
v -0.138006 -0.021696 0.052339
v -0.119517 -0.069482 0.045327
v -0.121064 0.043998 -0.010459
v -0.146521 -0.021696 -0.017791
v -0.126891 -0.069482 -0.015407
v -0.087684 0.039972 -0.068386
v -0.121470 -0.021696 -0.083845
v -0.090762 -0.070272 -0.093428
v -0.055769 -0.083308 -0.016904
v -0.070992 -0.014717 -0.130639
v 0.001355 0.144144 -0.029425
v -0.000000 -0.069482 -0.127823
v 0.014100 0.159120 -0.035204
v 0.036500 0.159539 -0.018454
v 0.020337 0.152395 0.026368
v -0.023106 0.150091 0.006584
v -0.014257 0.156924 -0.026879
v 0.013094 0.164239 -0.031544
v 0.032987 0.164422 -0.015536
v 0.020808 0.159364 0.020974
v -0.020864 0.157259 0.003376
v -0.011959 0.163634 -0.025547
vn 0.2138 0.4496 -0.8673
vn 0.0434 -0.9981 -0.0437
vn 0.6722 0.6053 -0.4263
vn 0.7289 0.6833 0.0425
vn 0.0362 -0.9988 0.0320
vn 0.4430 0.3022 0.8441
vn -0.0025 -0.9974 0.0719
vn -0.4419 0.3094 0.8420
vn -0.4636 0.7258 0.5081
vn -0.6775 0.7351 0.0241
vn -0.0618 -0.9882 -0.1401
vn -0.6267 0.4944 -0.6023
vn -0.4333 0.6163 -0.6576
vn -0.1961 0.5889 -0.7841
vn -0.2288 -0.6271 0.7446
vn 0.8893 -0.2870 0.3561
vn 0.9412 -0.0950 0.3242
vn -0.3655 -0.3850 0.8474
vn 0.0866 -0.9920 -0.0920
vn 0.0420 -0.9845 -0.1705
vn 0.5254 0.5038 -0.6856
vn 0.6153 -0.3728 -0.6945
vn 0.4300 0.6175 -0.6586
vn 0.8187 0.4153 -0.3965
vn 0.1690 -0.9842 -0.0525
vn 0.8630 -0.4139 -0.2897
vn 0.9464 0.3049 0.1071
vn 0.6839 0.3688 0.6295
vn 0.9589 -0.2589 0.1164
vn 0.7705 -0.4412 0.4602
vn 0.5126 0.7153 0.4749
vn 0.1220 -0.9897 0.0750
vn 0.4312 -0.3728 0.8216
vn -0.0000 -0.3728 0.9279
vn 0.0738 -0.9873 0.1407
vn -0.0463 0.7514 0.6582
vn -0.0063 -0.9911 0.1327
vn 0.0104 0.3718 0.9282
vn -0.4312 -0.3728 0.8216
vn -0.7637 -0.3728 0.5271
vn -0.0769 -0.9862 0.1464
vn -0.6765 0.3965 0.6206
vn -0.1361 -0.9862 0.0940
vn -0.9211 -0.3728 0.1118
vn -0.1604 -0.9855 0.0546
vn -0.9361 0.3372 0.1002
vn -0.6261 0.7006 -0.3423
vn -0.8046 0.4447 -0.3936
vn -0.1918 -0.9783 -0.0789
vn -0.8395 -0.4121 -0.3542
vn -0.2893 -0.4192 -0.8606
vn 0.2221 -0.3728 -0.9009
vn -0.6370 -0.2595 -0.7259
vn -0.0560 -0.9838 -0.1704
vn -0.1452 0.5391 -0.8297
vn -0.6647 -0.6644 -0.3418
vn -0.2569 0.3995 -0.8800
vn 0.4391 -0.4469 -0.7794
vn -0.2691 -0.1388 -0.9531
vn -0.0714 0.9892 0.1281
vn 0.4733 0.6233 -0.6225
vn 0.8855 0.3012 0.3538
vn -0.9376 0.2786 -0.2079
vn -0.3630 0.5342 0.7635
vt 0.309259 0.451719
vt 0.391505 0.446831
vt 0.388620 0.505310
vt 0.449277 0.253633
vt 0.532188 0.264388
vt 0.509313 0.354668
vt 0.630821 0.479430
vt 0.595439 0.367241
vt 0.679318 0.476901
vt 0.720094 0.440623
vt 0.422282 0.354668
vt 0.755665 0.347337
vt 0.823807 0.350029
vt 0.810846 0.418813
vt 0.388269 0.289033
vt 0.734872 0.317542
vt 0.692418 0.254349
vt 0.786520 0.267098
vt 0.617689 0.130222
vt 0.757862 0.173290
vt 0.166079 0.599591
vt 0.166079 0.454122
vt 0.212450 0.599507
vt 0.497145 0.174838
vt 0.267659 0.563632
vt 0.354509 0.567259
vt 0.310929 0.622223
vt 0.191833 0.437131
vt 0.538629 0.573997
vt 0.534911 0.544583
vt 0.551972 0.532124
vt 0.554851 0.423368
vt 0.546911 0.445542
vt 0.542615 0.404957
vt 0.525823 0.448047
vt 0.551972 0.589485
vt 0.584617 0.329627
vt 0.595439 0.276832
vt 0.576216 0.225926
vt 0.307654 0.404957
vt 0.367536 0.406568
vt 0.216908 0.227267
vt 0.193894 0.179714
vt 0.241137 0.157144
vt 0.267712 0.212053
vt 0.186863 0.417576
vt 0.282656 0.282372
vt 0.312536 0.215787
vt 0.334787 0.278705
vt 0.232582 0.314809
vt 0.181754 0.295743
vt 0.773895 0.481184
vt 0.721421 0.522855
vt 0.282545 0.351989
vt 0.216642 0.394327
vt 0.267405 0.404957
vt 0.612995 0.347337
vt 0.166079 0.362066
vt 0.446723 0.472739
vt 0.425891 0.421092
vt 0.473926 0.404957
vt 0.497980 0.464594
vt 0.451999 0.535166
vt 0.504072 0.536678
vt 0.391505 0.479229
vt 0.628141 0.286659
vt 0.595439 0.148324
vt 0.391505 0.564029
vt 0.679154 0.347337
vt 0.440510 0.594071
vt 0.490807 0.604697
vt 0.414889 0.635961
vt 0.461222 0.653067
vt 0.822266 0.207562
vt 0.334787 0.266373
vt 0.360128 0.217255
vt 0.409332 0.183673
vt 0.343623 0.180953
vt 0.400438 0.142176
vt 0.770209 0.130222
vt 0.833921 0.152572
vt 0.253921 0.653874
vt 0.471791 0.130222
vt 0.539938 0.142301
vt 0.593140 0.190965
vt 0.166079 0.156399
vt 0.209019 0.130222
vt 0.530110 0.532124
vt 0.525823 0.492356
vt 0.550038 0.488975
vt 0.548860 0.523939
vt 0.525823 0.419089
vt 0.525475 0.451178
vt 0.517042 0.448032
vt 0.517318 0.422550
vt 0.534916 0.473560
vt 0.554851 0.466372
vt 0.550038 0.473560
vt 0.643043 0.525028
vt 0.640825 0.557824
vt 0.601454 0.557824
vt 0.595439 0.540410
vt 0.611556 0.522855
vt 0.509144 0.404957
vt 0.504072 0.411327
vt 0.647332 0.566811
vt 0.597755 0.566811
vt 0.509144 0.478785
vt 0.504072 0.469956
vt 0.525823 0.590029
vt 0.525823 0.532124
vt 0.534911 0.538470
vt 0.534911 0.584453
s 0
usemtl Material.002
f 2/1/1 3/2/1 1/3/1
f 39/4/2 5/5/2 15/6/2
f 6/7/3 9/8/3 10/9/3
f 10/9/4 9/8/4 13/10/4
f 39/4/5 15/6/5 18/11/5
f 20/12/6 21/13/6 16/14/6
f 39/4/7 18/11/7 26/15/7
f 24/16/8 27/17/8 28/18/8
f 23/19/9 30/20/9 27/17/9
f 30/21/10 23/22/10 33/23/10
f 38/24/11 5/5/11 39/4/11
f 36/25/12 40/26/12 37/27/12
f 41/28/13 40/26/13 36/25/13
f 41/28/14 2/1/14 40/26/14
f 23/29/15 19/30/15 45/31/15
f 19/32/16 9/33/16 45/34/16
f 9/33/17 44/35/17 45/34/17
f 23/29/18 45/31/18 46/36/18
f 8/37/19 15/6/19 5/5/19 4/38/19
f 42/39/20 4/38/20 5/5/20
f 6/40/21 7/41/21 3/2/21 2/1/21
f 8/42/22 4/43/22 3/44/22 7/45/22
f 6/40/23 2/1/23 41/28/23 9/46/23
f 11/47/24 7/45/24 6/48/24 10/49/24
f 8/42/25 12/50/25 15/51/25
f 12/50/26 8/42/26 7/45/26 11/47/26
f 14/52/27 11/53/27 10/9/27 13/10/27
f 16/14/28 14/52/28 13/10/28 20/12/28
f 11/47/29 14/54/29 12/50/29
f 17/55/30 12/50/30 14/54/30 16/56/30
f 19/57/31 20/12/31 13/10/31 9/8/31
f 17/55/32 18/58/32 15/51/32 12/50/32
f 22/59/33 17/60/33 16/61/33 21/62/33
f 25/63/34 22/59/34 21/62/34 24/64/34
f 18/65/35 17/60/35 22/59/35
f 27/17/36 20/66/36 19/67/36 23/19/36
f 25/63/37 26/68/37 18/65/37 22/59/37
f 27/17/38 24/16/38 21/69/38 20/66/38
f 29/70/39 25/63/39 24/64/39 28/71/39
f 32/72/40 29/70/40 28/71/40 31/73/40
f 26/68/41 25/63/41 29/70/41
f 30/20/42 31/74/42 28/18/42 27/17/42
f 26/15/43 29/75/43 32/76/43
f 35/77/44 32/76/44 31/78/44 34/79/44
f 39/4/45 26/15/45 32/76/45 35/77/45
f 33/80/46 34/81/46 31/74/46 30/20/46
f 36/25/47 33/23/47 23/22/47 41/28/47
f 37/27/48 34/82/48 33/23/48 36/25/48
f 39/4/49 35/77/49 38/24/49
f 38/24/50 35/77/50 34/79/50 37/83/50
f 42/39/51 38/24/51 40/84/51 1/85/51
f 4/43/52 42/86/52 1/87/52 3/44/52
f 37/83/53 40/84/53 38/24/53
f 5/5/54 38/24/54 42/39/54
f 40/26/55 2/1/55 1/3/55
f 46/88/56 47/89/56 41/90/56 23/91/56
f 43/92/57 47/93/57 52/94/57 48/95/57
f 43/96/58 44/35/58 9/33/58 41/97/58
f 41/90/59 47/89/59 43/98/59
f 51/99/60 50/100/60 49/101/60 48/102/60 52/103/60
f 44/104/61 43/92/61 48/95/61 49/105/61
f 45/106/62 44/107/62 49/101/62 50/100/62
f 47/93/63 46/108/63 51/109/63 52/94/63
f 46/110/64 45/111/64 50/112/64 51/113/64
