# Blender 4.0.2
# www.blender.org
mtllib stone_item_model.mtl
o Cube.003
v -0.139837 -0.027709 0.128149
v 0.185522 -0.075944 0.091303
v -0.114833 -0.101692 -0.122708
v -0.157600 -0.112317 -0.053995
v -0.122580 -0.096235 0.077445
v -0.150749 0.111849 0.116413
v -0.180620 0.126154 -0.034563
v -0.050992 -0.082202 -0.211684
v 0.078021 0.092068 -0.076708
v 0.210031 -0.023381 -0.128098
v 0.061248 -0.139230 0.114701
v -0.026378 0.161961 0.141254
v -0.237224 -0.009076 0.061225
v -0.225654 0.083831 0.023678
v -0.195390 -0.059433 0.020322
v -0.202339 -0.037383 -0.136875
v -0.130618 0.096979 -0.103918
v -0.115765 -0.050905 -0.188566
v -0.148656 0.016877 -0.192494
v 0.003329 0.042936 -0.192204
v 0.034025 -0.043588 -0.217734
v 0.104105 -0.035354 -0.161860
v 0.111556 0.043780 -0.143618
v 0.143190 0.141385 -0.004616
v 0.212908 0.062710 0.049220
v 0.234890 -0.055528 -0.016286
v 0.107472 0.145264 0.125436
v 0.115429 0.029277 0.178347
v -0.099055 0.099874 0.178630
v -0.033074 0.033521 0.163275
v -0.062395 -0.015550 0.185892
v 0.057350 -0.052451 0.180579
v 0.142511 -0.143544 -0.129367
v 0.004429 -0.171263 -0.068020
v -0.054699 -0.154614 0.073446
v -0.020886 0.178503 -0.041613
v -0.126881 0.174063 0.049935
v -0.026453 0.204075 0.042429
v 0.105140 0.142108 0.124747
vn -0.7617 0.4214 0.4921
vn -0.7336 0.6075 0.3044
vn -0.4248 0.8955 -0.1323
vn -0.7105 -0.6932 0.1212
vn -0.5603 -0.7520 0.3474
vn -0.9220 -0.1935 0.3355
vn -0.8293 -0.2453 -0.5021
vn -0.6945 -0.7164 -0.0665
vn -0.5793 -0.7418 -0.3377
vn -0.4623 0.7637 -0.4506
vn 0.1333 0.5593 -0.8182
vn -0.4489 0.2746 -0.8504
vn 0.4624 0.0878 -0.8823
vn 0.3187 0.0090 -0.9478
vn 0.4041 0.6304 -0.6628
vn 0.7631 0.1409 -0.6308
vn 0.3364 -0.8202 -0.4627
vn 0.4579 0.7611 -0.4594
vn 0.6156 0.6764 -0.4044
vn 0.8835 0.4349 0.1741
vn 0.0364 0.9993 -0.0077
vn 0.2998 0.6273 0.7187
vn 0.5499 -0.2482 0.7975
vn 0.9747 -0.2108 -0.0739
vn 0.4247 0.1221 0.8971
vn -0.4082 0.1933 0.8922
vn -0.1799 0.9041 0.3876
vn 0.0496 -0.3883 0.9202
vn -0.0519 -0.5924 0.8040
vn -0.2388 -0.0838 0.9674
vn -0.3459 -0.0915 -0.9338
vn -0.0544 -0.9888 -0.1390
vn -0.2342 -0.8967 0.3755
vn 0.0379 0.7448 -0.6662
vn -0.6140 0.7830 0.0995
vn -0.2961 0.3589 0.8851
vn -0.7574 0.6480 0.0805
vn -0.3989 -0.3023 -0.8657
vn -0.1765 0.0919 0.9800
vt 0.308563 0.989582
vt 0.639468 1.159937
vt 0.648098 1.419299
vt 0.131020 1.044825
vt -0.025059 1.250324
vt -0.011209 0.986946
vt 0.778108 -0.642457
vt 0.829729 -0.209459
vt 0.650238 -0.492984
vt 0.545609 -0.289155
vt 0.584230 -0.077451
vt -0.056112 0.260245
vt 0.251987 -0.065280
vt 0.246035 0.347568
vt 1.181943 -0.052830
vt 1.089466 -0.331106
vt 1.261730 -0.293481
vt 1.018720 -0.135430
vt 0.082268 1.569729
vt -0.059638 1.475996
vt 0.082268 1.250325
vt -0.063633 -0.290764
vt -0.692847 0.897845
vt -0.410767 0.800452
vt -0.663509 1.130481
vt -0.506942 -0.069787
vt -0.602142 -0.403727
vt -0.278205 -0.488495
vt -0.059638 0.793562
vt -0.139669 1.047454
vt -0.649249 0.566523
vt -0.321299 0.509218
vt 0.998916 0.612119
vt 0.663383 0.960544
vt 0.721076 0.421532
vt 0.895236 0.903902
vt 1.212892 0.421532
vt 1.355652 0.586531
vt 1.029614 0.773328
vt 0.419531 0.761696
vt 0.251987 0.456973
vt 0.458097 0.469297
vt 1.018720 0.109549
vt 1.212059 -0.052830
vt 1.212059 0.355384
vt 0.640176 0.213668
vt 0.265867 0.038859
vt 0.251987 0.421533
vt 1.407907 1.273535
vt 1.692847 0.979503
vt 1.412915 -0.296254
vt 1.261730 -0.138752
vt 1.261730 -0.642458
vt 0.251987 -0.336311
vt 1.675564 0.569285
vt 0.131020 0.509218
vt -0.274547 -0.068424
vt -0.514059 0.208004
vt 0.820211 1.245617
vt -0.692847 -0.058061
vt -0.597325 -0.396172
vt 0.493665 1.408919
vt 0.251987 1.301541
vt 1.279825 0.282617
vt 1.279825 -0.052830
vt 1.394728 0.197416
vt 0.147798 0.933353
vt 0.251987 1.098524
vt 0.147799 1.297705
vt 1.018720 -0.537248
vt 0.167725 0.509218
vt 0.251987 0.719367
vt 0.167725 0.933353
vt 0.164412 0.509218
vt -0.368635 0.509218
vt 0.757128 0.050892
vt 0.952798 0.004724
vt 0.874975 0.298585
vt 1.212059 0.124988
vt 1.279826 -0.052830
vt 1.279826 0.356315
vt 0.658971 0.392998
vt 1.018720 -0.642458
vt 0.161758 -0.354668
vt 1.514013 -0.052830
vt 1.514013 0.242407
vt 1.394728 0.157748
vt -0.307602 1.318202
vt -0.559033 1.330253
vt -0.296049 -0.642458
vt -0.059638 1.417897
vt 0.998916 0.488479
vt 0.572258 0.770612
vt 0.998916 1.090571
vt 0.998916 1.511082
vt 0.998916 1.273536
vt 1.198222 1.290368
vt -0.059638 0.780578
vt -0.268713 0.375685
vt 0.141264 0.509218
vt 0.141264 0.958939
vt 0.131020 0.512111
s 1
usemtl Material.010
f 1/1/1 6/2/2 7/3/3
f 1/4/1 15/5/4 5/6/5
f 13/7/6 16/8/7 15/9/4
f 15/9/4 16/8/7 4/10/8
f 4/10/8 16/8/7 3/11/9
f 17/12/10 20/13/11 19/14/12
f 20/15/11 22/16/13 21/17/14
f 20/15/11 23/18/15 22/16/13
f 22/19/13 10/20/16 33/21/17
f 9/22/18 20/13/11 17/12/10
f 24/23/19 25/24/20 9/25/18
f 38/26/21 27/27/22 24/28/19
f 25/24/20 2/29/23 26/30/24
f 27/31/22 28/32/25 25/24/20
f 27/33/22 29/34/26 28/35/25
f 12/36/27 29/34/26 27/33/22
f 32/37/28 11/38/29 2/39/23
f 31/40/30 11/41/29 32/42/28
f 31/43/30 1/44/1 11/45/29
f 12/36/27 6/2/2 29/34/26
f 8/46/31 34/47/32 3/11/9
f 33/48/17 34/47/32 8/46/31
f 33/49/17 11/38/29 34/50/32
f 4/51/8 3/52/9 35/53/33
f 33/49/17 2/39/23 11/38/29
f 34/47/32 35/54/33 3/11/9
f 34/50/32 11/38/29 35/55/33
f 11/56/29 1/4/1 5/6/5
f 36/57/34 37/58/35 38/26/21
f 37/59/35 6/2/2 12/36/27
f 38/26/21 12/60/27 39/61/36
f 9/22/18 17/12/10 36/57/34
f 14/62/37 13/63/6 1/1/1
f 7/3/3 14/62/37 1/1/1
f 15/64/4 1/65/1 13/66/6
f 5/67/5 15/68/4 4/69/8
f 14/70/37 16/8/7 13/7/6
f 14/71/37 7/72/3 17/73/10
f 16/74/7 14/75/37 19/14/12
f 17/12/10 19/14/12 14/75/37
f 18/76/38 3/11/9 16/8/7
f 16/8/7 19/77/12 18/76/38
f 18/76/38 8/46/31 3/11/9
f 20/78/11 18/76/38 19/77/12
f 8/79/31 18/80/38 21/81/14
f 21/82/14 18/76/38 20/78/11
f 8/46/31 21/82/14 33/48/17
f 21/17/14 22/16/13 33/83/17
f 20/13/11 9/22/18 23/84/15
f 10/85/16 22/86/13 23/87/15
f 10/88/16 23/89/15 25/24/20
f 23/84/15 9/22/18 25/90/20
f 26/30/24 33/91/17 10/88/16
f 26/30/24 10/88/16 25/24/20
f 36/57/34 38/26/21 24/28/19
f 25/24/20 24/23/19 27/31/22
f 9/22/18 36/57/34 24/28/19
f 2/29/23 25/24/20 28/32/25
f 2/39/23 28/92/25 32/37/28
f 30/93/39 28/35/25 29/34/26
f 28/35/25 31/40/30 32/42/28
f 28/35/25 30/93/39 31/40/30
f 1/1/1 31/40/30 30/93/39
f 1/1/1 30/93/39 29/34/26
f 1/1/1 29/34/26 6/2/2
f 26/94/24 2/39/23 33/49/17
f 35/95/33 5/96/5 4/97/8
f 5/6/5 35/98/33 11/56/29
f 36/57/34 17/12/10 37/58/35
f 7/99/3 37/58/35 17/12/10
f 6/2/2 37/59/35 7/3/3
f 37/58/35 12/60/27 38/26/21
f 27/100/22 38/101/21 39/102/36
l 3 1
