# Blender 4.0.2
# www.blender.org
mtllib twig_item_model.mtl
o Cylinder
v 0.024197 -0.248022 0.017232
v 0.044017 0.082206 -0.005467
v 0.006842 -0.238599 0.039784
v 0.033072 0.082206 0.008755
v -0.019968 -0.200212 0.030248
v 0.016164 0.082206 0.002741
v -0.019184 -0.220848 0.001802
v 0.016659 0.082206 -0.015198
v 0.008112 -0.238599 -0.006242
v 0.033873 0.082206 -0.020270
v 0.081001 0.250729 0.002268
v 0.086061 0.250729 -0.004307
v 0.073184 0.250729 -0.000512
v 0.073413 0.250729 -0.008805
v 0.081371 0.250729 -0.011150
v 0.021724 0.098640 0.002424
v 0.022193 0.098640 -0.014574
v 0.038505 0.098640 -0.019381
v 0.037746 0.098640 0.008123
v 0.048117 0.098640 -0.005354
v -0.051468 0.157753 -0.011452
v -0.051626 0.157753 -0.005739
v -0.049706 0.162987 -0.011254
v -0.049855 0.162987 -0.005840
v 0.069890 0.317262 -0.002396
v 0.071666 0.317262 -0.004704
v 0.067146 0.317262 -0.003372
v 0.067227 0.317262 -0.006283
v 0.070020 0.317262 -0.007106
v 0.041474 0.157009 0.001297
v 0.054346 0.157009 0.005876
v 0.041851 0.157009 -0.012360
v 0.054956 0.157009 -0.016222
v 0.062679 0.157009 -0.004952
v 0.046833 0.172849 0.000991
v 0.058851 0.172849 0.005266
v 0.047185 0.172849 -0.011759
v 0.059421 0.172849 -0.015365
v 0.066631 0.172849 -0.004843
v 0.082179 0.185962 -0.012854
v 0.083797 0.182998 -0.014647
v 0.085129 0.185962 -0.008548
v 0.086957 0.182998 -0.010036
vn 0.7918 -0.0056 0.6108
vn -0.2390 0.1182 0.9638
vn -0.9901 0.1157 -0.0788
vn -0.9471 0.3199 -0.0261
vn -0.2896 -0.0190 -0.9570
vn 0.8112 -0.0894 -0.5779
vn -0.6680 -0.7330 0.1285
vn 0.7806 0.1725 0.6007
vn -0.2803 0.1305 -0.9510
vn -0.3323 0.1305 0.9341
vn 0.8086 -0.1979 -0.5541
vn 0.7768 -0.1979 0.5978
vn -0.0749 0.0446 0.9962
vn 0.6672 0.7446 0.0184
vn -0.0094 0.0411 -0.9991
vn -0.7430 -0.6690 -0.0205
vn -0.0000 1.0000 -0.0000
vn -0.2827 0.0101 -0.9592
vn -0.3351 0.0101 0.9421
vn 0.8126 0.1725 -0.5568
vn -0.9954 -0.0915 -0.0275
vn 0.6189 -0.6611 -0.4241
vn 0.6466 0.6210 -0.4431
vn 0.2991 -0.1142 0.9474
vn -0.4973 0.7978 0.3408
vn -0.0309 0.1441 -0.9891
vt -0.770960 2.045988
vt -0.667969 0.296800
vt -0.566690 0.308104
vt -0.593089 2.008606
vt -0.566690 2.012944
vt -0.413544 0.305687
vt -0.312220 0.315303
vt -0.372014 1.798612
vt 1.069254 0.798429
vt 1.043001 -0.673505
vt 1.144304 -0.684568
vt 1.254304 0.901227
vt 1.401461 -0.220343
vt 1.329027 -0.220441
vt 1.342633 -0.684409
vt 1.389745 -0.684346
vt 0.646219 1.913201
vt 0.550266 0.320862
vt 0.650935 0.306490
vt 0.832532 1.994950
vt 0.864694 1.208137
vt 0.832532 -0.430305
vt 0.934419 -0.432377
vt 1.038392 1.258740
vt 1.181613 1.013876
vt 1.038392 0.995221
vt 1.316061 0.964898
vt -0.652829 -0.679071
vt -0.699650 -0.684297
vt -0.611010 -1.045988
vt -0.594576 -1.044154
vt 0.708718 -0.225735
vt 0.637163 -0.215520
vt 0.711825 -0.676376
vt 0.758365 -0.683020
vt -0.423896 -0.216511
vt -0.495917 -0.223345
vt -0.566690 -0.677888
vt -0.519848 -0.673442
vt 1.388187 1.003869
vt 1.316061 1.010560
vt 1.364548 0.556680
vt 1.411460 0.552329
vt -0.613021 -0.222865
vt -0.685010 -0.230900
vt -0.671059 0.201130
vt -0.575090 0.211841
vt 0.849642 -0.525089
vt 0.946186 -0.527053
vt -0.428478 0.209776
vt -0.332467 0.218887
vt 0.566020 0.223618
vt 0.661411 0.210000
vt 0.103821 -0.095987
vt 0.110269 -0.065282
vt 1.073171 -1.015084
vt 1.040910 -1.011560
vt 1.038392 -1.042650
vt 1.068961 -1.045988
vt 1.508024 0.629409
vt 1.411459 0.629409
vt 1.441568 0.221792
vt 1.472320 0.221792
vt 0.110269 -0.039966
vt 0.115286 -0.070935
vt 1.063837 1.018986
vt 1.063837 1.035522
vt 1.048111 1.040631
vt 1.038392 1.027254
vt 1.048111 1.013876
vt 0.619375 -1.043656
vt 0.635709 -1.045988
vt -0.461544 -1.045988
vt -0.445103 -1.044428
vt 1.316061 0.223319
vt 1.332526 0.221792
vt 1.357702 -1.045988
vt 1.374237 -1.045966
vt -0.682032 -0.138683
vt -0.604925 -0.130078
vt 0.910412 -0.861759
vt 0.987982 -0.863337
vt -0.481522 -0.130896
vt -0.404381 -0.123575
vt 0.621978 -0.121786
vt 0.698621 -0.132728
vt 1.412624 0.221792
vt 1.316061 0.221661
vt 1.326259 -0.126075
vt 1.403843 -0.125970
vt 1.006652 -1.045343
vt 1.038392 -1.045988
vt 1.341709 1.167751
vt 1.316061 1.149043
vt 1.326512 1.140159
vt 1.350457 1.157624
vt -0.770960 -0.305598
vt -0.756198 -0.320493
vt 1.316061 1.010560
vt 1.374583 1.053245
vt 0.818887 -0.320898
vt 0.832532 -0.305265
s 0
usemtl Material.003
f 1/1/1 2/2/1 4/3/1 3/4/1
f 3/5/2 4/6/2 6/7/2 5/8/2
f 5/9/3 6/10/3 8/11/3 7/12/3
f 37/13/4 35/14/4 13/15/4 14/16/4
f 7/17/5 8/18/5 10/19/5 9/20/5
f 9/21/6 10/22/6 2/23/6 1/24/6
f 11/28/8 12/29/8 26/30/8 25/31/8
f 38/32/9 37/33/9 14/34/9 15/35/9
f 35/36/10 36/37/10 11/38/10 13/39/10
f 39/40/11 38/41/11 15/42/11 12/43/11
f 36/44/12 39/45/12 12/29/12 11/28/12
f 4/3/12 2/2/12 20/46/12 19/47/12
f 2/23/11 10/22/11 18/48/11 20/49/11
f 6/7/10 4/6/10 19/50/10 16/51/10
f 10/19/9 8/18/9 17/52/9 18/53/9
f 6/7/13 16/51/13 24/54/13 22/55/13
f 16/60/14 17/61/14 23/62/14 24/63/14
f 17/52/15 8/18/15 21/64/15 23/65/15
f 8/11/16 6/10/16 22/57/16 21/56/16
f 15/35/18 14/34/18 28/71/18 29/72/18
f 13/39/19 11/38/19 25/73/19 27/74/19
f 12/43/20 15/42/20 29/75/20 26/76/20
f 14/16/21 13/15/21 27/77/21 28/78/21
f 19/47/12 20/46/12 34/79/12 31/80/12
f 20/49/11 18/48/11 33/81/11 34/82/11
f 16/51/10 19/50/10 31/83/10 30/84/10
f 18/53/9 17/52/9 32/85/9 33/86/9
f 17/87/4 16/88/4 30/89/4 32/90/4
f 31/80/12 34/79/12 39/45/12 36/44/12
f 34/82/22 33/81/22 41/91/22 43/92/22
f 30/84/10 31/83/10 36/37/10 35/36/10
f 33/86/9 32/85/9 37/33/9 38/32/9
f 32/90/4 30/89/4 35/14/4 37/13/4
f 39/45/24 34/79/24 43/97/24 42/98/24
f 38/99/25 39/100/25 42/96/25 40/95/25
f 33/86/26 38/32/26 40/101/26 41/102/26
usemtl Material.004
f 1/25/7 3/26/7 5/9/7 7/12/7 9/27/7
f 21/56/4 22/57/4 24/58/4 23/59/4
f 25/66/17 26/67/17 29/68/17 28/69/17 27/70/17
f 43/93/23 41/94/23 40/95/23 42/96/23
