# Blender 4.0.2
# www.blender.org
mtllib missing_mesh_model.mtl
o null
v 0.776301 -0.215003 0.051180
v 0.508964 -0.215003 0.051180
v 0.610076 -0.132987 0.051180
v 0.495456 -0.132987 0.051180
v 0.495456 -0.215003 0.051180
v 0.329231 0.233897 0.051180
v 0.176772 -0.045520 0.051180
v 0.172125 -0.082396 0.051180
v 0.165581 -0.109078 0.051180
v 0.156420 -0.132952 0.051180
v 0.144642 -0.154017 0.051180
v 0.130247 -0.172273 0.051180
v 0.113234 -0.187721 0.051180
v 0.093604 -0.200360 0.051180
v 0.046491 -0.217212 0.051180
v 0.019009 -0.221425 0.051180
v -0.027110 -0.222802 0.051180
v -0.066952 -0.217343 0.051180
v -0.091073 -0.210484 0.051180
v -0.112656 -0.200882 0.051180
v -0.131699 -0.188536 0.051180
v -0.162168 -0.155615 0.051180
v -0.173594 -0.135039 0.051180
v -0.182481 -0.111719 0.051180
v -0.193338 -0.049636 0.051180
v -0.092217 -0.039981 0.051180
v -0.088808 -0.068005 0.051180
v -0.080471 -0.093510 0.051180
v -0.067540 -0.112902 0.051180
v -0.050053 -0.126329 0.051180
v -0.000081 -0.135482 0.051180
v 0.039100 -0.123804 0.051180
v 0.064461 -0.094948 0.051180
v 0.075987 -0.043273 0.051180
v 0.076247 0.233897 0.051180
v -0.244354 0.233897 0.051180
v -0.244354 -0.215003 0.051180
v -0.541237 0.082185 0.051180
v -0.555019 0.104275 0.051180
v -0.552866 0.061115 0.051180
v -0.354413 -0.049671 0.051180
v -0.339654 -0.042137 0.051180
v 0.776301 -0.132987 -0.052020
v 0.508964 -0.215003 -0.052020
v 0.508964 0.233897 -0.052020
v 0.610076 0.233897 -0.052020
v 0.495456 -0.215003 -0.052020
v 0.228119 0.233897 -0.052020
v 0.176772 -0.045520 -0.052020
v 0.172125 -0.082396 -0.052020
v 0.165581 -0.109078 -0.052020
v 0.156420 -0.132952 -0.052020
v 0.144642 -0.154017 -0.052020
v 0.130247 -0.172273 -0.052020
v 0.113234 -0.187721 -0.052020
v 0.093604 -0.200360 -0.052020
v 0.071356 -0.210190 -0.052020
v 0.046491 -0.217212 -0.052020
v 0.019009 -0.221425 -0.052020
v -0.027110 -0.222802 -0.052020
v -0.066952 -0.217343 -0.052020
v -0.091073 -0.210484 -0.052020
v -0.112656 -0.200882 -0.052020
v -0.131699 -0.188536 -0.052020
v -0.148203 -0.173447 -0.052020
v -0.173594 -0.135039 -0.052020
v -0.182481 -0.111719 -0.052020
v -0.188829 -0.085657 -0.052020
v -0.193338 -0.049636 -0.052020
v -0.092482 0.233897 -0.052020
v -0.092217 -0.039981 -0.052020
v -0.088808 -0.068005 -0.052020
v -0.080471 -0.093510 -0.052020
v -0.067540 -0.112902 -0.052020
v -0.050053 -0.126329 -0.052020
v -0.027869 -0.133895 -0.052020
v -0.000081 -0.135482 -0.052020
v 0.024306 -0.131004 -0.052020
v 0.039100 -0.123804 -0.052020
v 0.051774 -0.113670 -0.052020
v 0.064461 -0.094948 -0.052020
v 0.072641 -0.070328 -0.052020
v 0.075987 -0.043273 -0.052020
v -0.346405 -0.215003 -0.052020
v -0.541237 0.082185 -0.052020
v -0.555019 0.104275 -0.052020
v -0.552866 0.061115 -0.052020
v -0.648177 0.233897 -0.052020
v -0.354413 -0.049670 -0.052020
v -0.338469 -0.076003 -0.052020
v -0.339654 -0.042137 -0.052020
v -0.339831 0.233897 -0.052020
v -0.244354 0.233897 -0.052020
v -0.244354 -0.215003 -0.052020
v -0.346405 -0.215003 0.051180
v -0.552699 -0.215003 -0.052020
v -0.552699 -0.215003 0.051180
v -0.648177 -0.215003 -0.052020
v -0.648177 -0.215003 0.051180
v -0.648177 0.233897 0.051180
v -0.539239 0.233897 -0.052020
v -0.539239 0.233897 0.051180
v -0.338404 -0.075391 0.051180
v -0.339831 0.233897 0.051180
v 0.177359 0.233897 -0.052020
v 0.177359 0.233897 0.051180
v 0.140842 -0.163156 0.051180
v 0.059613 -0.216058 -0.052020
v 0.066499 -0.214006 0.051180
v -0.054248 -0.221597 0.051180
v -0.147939 -0.178749 0.051180
v -0.164106 -0.154708 -0.052020
v -0.190885 -0.083293 0.051180
v -0.193907 0.233897 -0.052020
v -0.193907 0.233897 0.051180
v -0.092482 0.233897 0.051180
v -0.091064 -0.058628 -0.052020
v -0.091482 -0.055215 0.051180
v -0.075757 -0.103706 0.051180
v -0.032169 -0.135274 0.051180
v -0.013167 -0.136392 -0.052020
v 0.028694 -0.129743 0.051180
v 0.059850 -0.104770 -0.052020
v 0.058033 -0.107405 0.051180
v 0.075266 -0.057975 -0.052020
v 0.074856 -0.061271 0.051180
v 0.076247 0.233897 -0.052020
v 0.495456 -0.132987 -0.052020
v 0.228119 -0.215003 -0.052020
v 0.228119 -0.215003 0.051180
v 0.228119 0.233897 0.051180
v 0.329231 0.233897 -0.052020
v 0.329231 -0.132987 -0.052020
v 0.329231 -0.132987 0.051180
v 0.776301 -0.132987 0.051180
v 0.776301 -0.215003 -0.052020
v 0.508964 0.233897 0.051180
v 0.610076 0.233897 0.051180
v 0.610076 -0.132987 -0.052020
vn -0.0000 -0.0000 1.0000
vn -0.0000 -0.0000 -1.0000
vn 0.5774 0.5774 -0.5774
vn 0.5774 0.5774 0.5774
vn 0.5774 -0.5774 0.5774
vn 0.5774 -0.5774 -0.5774
vn 0.1641 0.6144 0.7717
vn 0.4752 0.4505 -0.7558
vn 0.8063 0.5916 -0.0027
vn -0.3755 -0.6940 0.6143
vn -0.3755 -0.6940 -0.6143
vn 0.0438 -0.1451 0.9884
vn 0.0438 -0.1451 -0.9884
vn 0.5788 -0.5746 0.5786
vn 0.5788 -0.5746 -0.5786
vn -0.5774 -0.5774 0.5774
vn -0.5774 -0.5774 -0.5774
vn -0.5774 0.5774 0.5774
vn -0.5774 0.5774 -0.5774
vn 0.3769 0.6938 0.6137
vn 0.3766 0.6931 -0.6147
vn -0.0437 0.1458 0.9883
vn -0.0429 0.1446 -0.9886
vn -0.5782 0.5756 0.5782
vn -0.5784 0.5758 -0.5779
vn 0.5807 0.5712 -0.5800
vn 0.5807 0.5712 0.5800
vn 0.7030 -0.1504 0.6951
vn 0.6924 -0.1481 -0.7061
vn 0.7810 -0.6243 -0.0173
vn 0.5298 -0.4678 -0.7075
vn 0.2297 -0.6956 0.6807
vn 0.2910 -0.9567 -0.0081
vn -0.1750 -0.9846 0.0004
vn -0.1513 -0.6995 -0.6985
vn -0.5249 -0.5180 0.6754
vn -0.4005 -0.5933 -0.6983
vn -0.6222 -0.3770 -0.6861
vn -0.7083 -0.1423 0.6914
vn -0.7020 -0.1456 -0.6972
vn -0.5819 0.5746 0.5755
vn -0.5781 0.5708 -0.5831
vn 0.5761 0.5785 0.5775
vn 0.5768 0.5792 -0.5760
vn 0.9837 0.1797 0.0096
vn 0.9823 0.1871 0.0099
vn 0.1186 0.9928 0.0179
vn -0.2469 0.6112 0.7519
vn -0.2393 0.6183 -0.7486
vn -0.5200 0.3846 0.7627
vn -0.8108 0.5853 0.0062
vn -0.6664 0.1160 0.7366
vn -0.9863 0.1649 -0.0014
vn -0.5768 0.5792 0.5761
vn -0.5761 0.5784 -0.5775
vn 0.3015 0.3015 0.9045
vn 0.3015 0.3015 -0.9045
vt 0.400000 0.000000
vt 0.800000 0.000000
vt 0.600000 0.000000
vt 1.000000 0.000000
vt 0.000000 0.000000
vt 0.200000 0.000000
vt 0.457154 0.000000
vt 0.509434 0.000000
vt 0.490566 0.000000
vt 0.542856 0.000000
vt 0.966579 0.000000
vt 0.033412 0.000000
vt 0.576661 0.000000
vt 0.932783 0.000000
vt 0.056604 0.000000
vt 0.433962 0.000000
vt 0.614176 0.000000
vt 0.895283 0.000000
vt 0.075472 0.000000
vt 0.415094 0.000000
vt 0.651324 0.000000
vt 0.858149 0.000000
vt 0.094340 0.000000
vt 0.396226 0.000000
vt 0.688260 0.000000
vt 0.830189 0.000000
vt 0.802660 0.000000
vt 0.725427 0.000000
vt 0.764939 0.000000
vt 0.113208 0.000000
vt 0.377358 0.000000
vt 0.132075 0.000000
vt 0.358491 0.000000
vt 0.150943 0.000000
vt 0.339623 0.000000
vt 0.169811 0.000000
vt 0.320755 0.000000
vt 0.188679 0.000000
vt 0.301887 0.000000
vt 0.207547 0.000000
vt 0.283019 0.000000
vt 0.226415 0.000000
vt 0.255612 0.000000
vt 0.508475 0.000000
vt 0.542373 0.000000
vt 0.525424 0.000000
vt 0.271338 0.000000
vt 0.254498 0.000000
vt 0.616300 0.000000
vt 0.911021 0.000000
vt 0.016949 0.000000
vt 0.120920 0.000000
vt 0.405533 0.000000
vt 0.033898 0.000000
vt 0.491525 0.000000
vt 0.780056 0.000000
vt 0.762934 0.000000
vt 0.120920 0.000000
vt 0.000000 1.000000
vt 0.016667 1.000000
vt 0.016667 0.000000
vt 0.705053 1.000000
vt 0.643587 0.000000
vt 0.620190 1.000000
vt 0.033333 1.000000
vt 0.033333 0.000000
vt 0.263570 1.000000
vt 0.263638 0.000000
vt 0.483333 1.000000
vt 0.483333 0.000000
vt 0.500000 1.000000
vt 0.500000 0.000000
vt 0.516667 1.000000
vt 0.516667 0.000000
vt 0.533333 1.000000
vt 0.533333 0.000000
vt 0.766524 1.000000
vt 0.766990 0.000000
vt 0.983333 1.000000
vt 0.983333 0.000000
vt 1.000000 1.000000
vt 0.050463 1.000000
vt 0.054532 0.000000
vt 0.118958 1.000000
vt 0.124071 0.000000
vt 0.188692 1.000000
vt 0.193814 0.000000
vt 0.269427 1.000000
vt 0.274632 0.000000
vt 0.348529 1.000000
vt 0.326101 0.000000
vt 0.371622 0.000000
vt 0.426940 1.000000
vt 0.431009 0.000000
vt 0.481481 1.000000
vt 0.481481 0.000000
vt 0.550671 1.000000
vt 0.554744 0.000000
vt 0.732669 0.000000
vt 0.795217 1.000000
vt 0.799795 0.000000
vt 0.856291 1.000000
vt 0.861403 0.000000
vt 0.926755 1.000000
vt 0.930827 0.000000
vt 0.981481 1.000000
vt 0.981481 0.000000
vt 0.166667 1.000000
vt 0.166667 0.000000
vt 0.333333 1.000000
vt 0.333333 0.000000
vt 0.666667 1.000000
vt 0.666667 0.000000
vt 0.833333 1.000000
vt 0.833333 0.000000
s 0
usemtl Material.002
f 2/1/1 138/2/1 137/3/1
f 2/1/1 3/4/1 138/2/1
f 2/1/1 135/5/1 3/4/1
f 2/1/1 1/6/1 135/5/1
f 130/1/1 6/2/1 131/3/1
f 130/1/1 134/4/1 6/2/1
f 130/1/1 4/5/1 134/4/1
f 130/1/1 5/6/1 4/5/1
f 25/7/1 116/8/1 115/9/1
f 25/7/1 26/10/1 116/8/1
f 34/11/1 106/5/1 35/4/1
f 34/11/1 7/12/1 106/5/1
f 25/7/1 27/13/1 26/10/1
f 126/14/1 7/12/1 34/11/1
f 126/14/1 8/15/1 7/12/1
f 113/16/1 27/13/1 25/7/1
f 113/16/1 28/17/1 27/13/1
f 33/18/1 8/15/1 126/14/1
f 33/18/1 9/19/1 8/15/1
f 24/20/1 28/17/1 113/16/1
f 24/20/1 29/21/1 28/17/1
f 124/22/1 9/19/1 33/18/1
f 124/22/1 10/23/1 9/19/1
f 23/24/1 29/21/1 24/20/1
f 23/24/1 30/25/1 29/21/1
f 32/26/1 10/23/1 124/22/1
f 122/27/1 10/23/1 32/26/1
f 23/24/1 120/28/1 30/25/1
f 31/29/1 10/23/1 122/27/1
f 31/29/1 11/30/1 10/23/1
f 23/24/1 31/29/1 120/28/1
f 22/31/1 31/29/1 23/24/1
f 22/31/1 11/30/1 31/29/1
f 22/31/1 12/32/1 11/30/1
f 111/33/1 12/32/1 22/31/1
f 111/33/1 13/34/1 12/32/1
f 21/35/1 13/34/1 111/33/1
f 21/35/1 14/36/1 13/34/1
f 20/37/1 14/36/1 21/35/1
f 20/37/1 109/38/1 14/36/1
f 19/39/1 109/38/1 20/37/1
f 19/39/1 15/40/1 109/38/1
f 18/41/1 15/40/1 19/39/1
f 18/41/1 16/42/1 15/40/1
f 17/43/1 16/42/1 18/41/1
f 99/44/1 102/45/1 100/46/1
f 99/44/1 39/47/1 102/45/1
f 39/48/1 41/49/1 102/45/1
f 42/50/1 36/5/1 104/4/1
f 42/50/1 37/51/1 36/5/1
f 38/52/1 41/49/1 39/48/1
f 99/44/1 40/53/1 39/47/1
f 95/54/1 41/49/1 38/52/1
f 99/44/1 97/55/1 40/53/1
f 103/56/1 37/51/1 42/50/1
f 95/54/1 103/57/1 41/49/1
f 95/54/1 37/51/1 103/56/1
f 44/1/2 45/3/2 46/2/2
f 44/1/2 46/2/2 139/4/2
f 44/1/2 139/4/2 43/5/2
f 44/1/2 43/5/2 136/6/2
f 129/1/2 48/3/2 132/2/2
f 129/1/2 132/2/2 133/4/2
f 129/1/2 133/4/2 128/5/2
f 129/1/2 128/5/2 47/6/2
f 69/7/2 114/9/2 70/8/2
f 69/7/2 70/8/2 71/10/2
f 83/11/2 127/4/2 105/5/2
f 83/11/2 105/5/2 49/12/2
f 69/7/2 71/10/2 72/13/2
f 82/14/2 83/11/2 49/12/2
f 82/14/2 49/12/2 50/15/2
f 68/16/2 69/7/2 72/13/2
f 68/16/2 72/13/2 73/17/2
f 81/18/2 82/14/2 50/15/2
f 81/18/2 50/15/2 51/19/2
f 67/20/2 68/16/2 73/17/2
f 67/20/2 73/17/2 74/21/2
f 80/22/2 81/18/2 51/19/2
f 80/22/2 51/19/2 52/23/2
f 66/24/2 67/20/2 74/21/2
f 66/24/2 74/21/2 75/25/2
f 79/26/2 80/22/2 52/23/2
f 78/27/2 79/26/2 52/23/2
f 66/24/2 75/25/2 76/28/2
f 77/29/2 78/27/2 52/23/2
f 77/29/2 52/23/2 53/30/2
f 66/24/2 76/28/2 77/29/2
f 112/31/2 66/24/2 77/29/2
f 112/31/2 77/29/2 53/30/2
f 112/31/2 53/30/2 54/32/2
f 65/33/2 112/31/2 54/32/2
f 65/33/2 54/32/2 55/34/2
f 64/35/2 65/33/2 55/34/2
f 64/35/2 55/34/2 56/36/2
f 63/37/2 64/35/2 56/36/2
f 63/37/2 56/36/2 57/38/2
f 62/39/2 63/37/2 57/38/2
f 62/39/2 57/38/2 58/40/2
f 61/41/2 62/39/2 58/40/2
f 61/41/2 58/40/2 59/42/2
f 60/43/2 61/41/2 59/42/2
f 98/44/2 88/46/2 101/45/2
f 98/44/2 101/45/2 86/47/2
f 86/48/2 101/45/2 89/49/2
f 91/50/2 92/4/2 93/5/2
f 91/50/2 93/5/2 94/51/2
f 85/58/2 86/48/2 89/49/2
f 98/44/2 86/47/2 87/53/2
f 84/54/2 85/58/2 89/49/2
f 98/44/2 87/53/2 96/55/2
f 90/56/2 91/50/2 94/51/2
f 84/54/2 89/49/2 90/57/2
f 84/54/2 90/56/2 94/51/2
s 1
f 93/5/3 36/59/4 37/60/5 94/61/6
f 120/62/7 74/63/8 119/64/9
f 94/61/6 37/60/5 95/65/10 84/66/11
f 84/66/11 95/65/10 39/67/12 86/68/13
f 86/68/13 39/67/12 97/69/14 96/70/15
f 96/70/15 97/69/14 99/71/16 98/72/17
f 98/72/17 99/71/16 100/73/18 88/74/19
f 88/74/19 100/73/18 102/75/20 101/76/21
f 101/76/21 102/75/20 103/77/22 90/78/23
f 90/78/23 103/77/22 104/79/24 92/80/25
f 92/80/25 104/79/24 36/81/4 93/4/3
f 105/5/26 106/59/27 8/82/28 50/83/29
f 50/83/29 8/82/28 107/84/30 54/85/31
f 54/85/31 107/84/30 109/86/32 108/87/33
f 108/87/33 109/86/32 110/88/34 61/89/35
f 61/89/35 110/88/34 111/90/36 64/91/37
f 112/92/38 111/90/36 113/93/39 68/94/40
f 111/90/36 112/92/38 64/91/37
f 68/94/40 113/93/39 115/95/41 114/96/42
f 114/96/42 115/95/41 116/71/43 70/72/44
f 70/72/44 116/71/43 118/97/45 117/98/46
f 117/98/46 118/97/45 119/64/9 74/63/8
f 121/99/47 120/62/7 122/100/48 78/101/49
f 120/62/7 121/99/47 74/63/8
f 78/101/49 122/100/48 124/102/50 123/103/51
f 123/103/51 124/102/50 126/104/52 125/105/53
f 125/105/53 126/104/52 35/106/54 127/107/55
f 127/107/55 35/106/54 106/81/27 105/4/26
f 128/5/3 4/59/4 5/108/5 47/109/6
f 47/109/6 5/108/5 130/110/16 129/111/17
f 129/111/17 130/110/16 131/71/18 48/72/19
f 48/72/19 131/71/18 6/112/4 132/113/3
f 132/113/3 6/112/4 134/114/56 133/115/57
f 133/115/57 134/114/56 4/81/4 128/4/3
f 43/5/3 135/59/4 1/108/5 136/109/6
f 136/109/6 1/108/5 2/110/16 44/111/17
f 44/111/17 2/110/16 137/71/18 45/72/19
f 45/72/19 137/71/18 138/112/4 46/113/3
f 46/113/3 138/112/4 3/114/56 139/115/57
f 139/115/57 3/114/56 135/81/4 43/4/3
o Cube.004
v -1.050000 -1.050000 -0.950000
v -1.050000 -0.950000 -0.950000
v -1.050000 -1.050000 -1.050000
v -1.050000 -0.950000 -1.050000
v -0.950000 -1.050000 -0.950000
v -0.950000 -0.950000 -0.950000
v -0.950000 -1.050000 -1.050000
v -0.950000 -0.950000 -1.050000
v -1.050000 -1.050000 1.050000
v -1.050000 -0.950000 1.050000
v -1.050000 -1.050000 0.950000
v -1.050000 -0.950000 0.950000
v -0.950000 -1.050000 1.050000
v -0.950000 -0.950000 1.050000
v -0.950000 -1.050000 0.950000
v -0.950000 -0.950000 0.950000
v -1.050000 0.950000 1.050000
v -1.050000 1.050000 1.050000
v -1.050000 0.950000 0.950000
v -1.050000 1.050000 0.950000
v -0.950000 0.950000 1.050000
v -0.950000 1.050000 1.050000
v -0.950000 0.950000 0.950000
v -0.950000 1.050000 0.950000
v -1.050000 0.950000 -0.950000
v -1.050000 1.050000 -0.950000
v -1.050000 0.950000 -1.050000
v -1.050000 1.050000 -1.050000
v -0.950000 0.950000 -0.950000
v -0.950000 1.050000 -0.950000
v -0.950000 0.950000 -1.050000
v -0.950000 1.050000 -1.050000
v 0.949335 -1.050000 -0.950000
v 0.949335 -0.950000 -0.950000
v 0.949335 -1.050000 -1.050000
v 0.949335 -0.950000 -1.050000
v 1.049335 -1.050000 -0.950000
v 1.049335 -0.950000 -0.950000
v 1.049335 -1.050000 -1.050000
v 1.049335 -0.950000 -1.050000
v 0.949335 -1.050000 1.050000
v 0.949335 -0.950000 1.050000
v 0.949335 -1.050000 0.950000
v 0.949335 -0.950000 0.950000
v 1.049335 -1.050000 1.050000
v 1.049335 -0.950000 1.050000
v 1.049335 -1.050000 0.950000
v 1.049335 -0.950000 0.950000
v 0.949335 0.950000 1.050000
v 0.949335 1.050000 1.050000
v 0.949335 0.950000 0.950000
v 0.949335 1.050000 0.950000
v 1.049335 0.950000 1.050000
v 1.049335 1.050000 1.050000
v 1.049335 0.950000 0.950000
v 1.049335 1.050000 0.950000
v 0.949335 0.950000 -0.950000
v 0.949335 1.050000 -0.950000
v 0.949335 0.950000 -1.050000
v 0.949335 1.050000 -1.050000
v 1.049335 0.950000 -0.950000
v 1.049335 1.050000 -0.950000
v 1.049335 0.950000 -1.050000
v 1.049335 1.050000 -1.050000
vn -1.0000 -0.0000 -0.0000
vn -0.0000 -0.0000 -1.0000
vn 1.0000 -0.0000 -0.0000
vn -0.0000 -0.0000 1.0000
vn -0.0000 -1.0000 -0.0000
vn -0.0000 1.0000 -0.0000
vt 0.375000 0.000000
vt 0.625000 0.000000
vt 0.625000 0.250000
vt 0.375000 0.250000
vt 0.625000 0.500000
vt 0.375000 0.500000
vt 0.625000 0.750000
vt 0.375000 0.750000
vt 0.625000 1.000000
vt 0.375000 1.000000
vt 0.125000 0.500000
vt 0.125000 0.750000
vt 0.875000 0.500000
vt 0.875000 0.750000
s 0
f 140/116/58 141/117/58 143/118/58 142/119/58
f 142/119/59 143/118/59 147/120/59 146/121/59
f 146/121/60 147/120/60 145/122/60 144/123/60
f 144/123/61 145/122/61 141/124/61 140/125/61
f 142/126/62 146/121/62 144/123/62 140/127/62
f 147/120/63 143/128/63 141/129/63 145/122/63
f 148/116/58 149/117/58 151/118/58 150/119/58
f 150/119/59 151/118/59 155/120/59 154/121/59
f 154/121/60 155/120/60 153/122/60 152/123/60
f 152/123/61 153/122/61 149/124/61 148/125/61
f 150/126/62 154/121/62 152/123/62 148/127/62
f 155/120/63 151/128/63 149/129/63 153/122/63
f 156/116/58 157/117/58 159/118/58 158/119/58
f 158/119/59 159/118/59 163/120/59 162/121/59
f 162/121/60 163/120/60 161/122/60 160/123/60
f 160/123/61 161/122/61 157/124/61 156/125/61
f 158/126/62 162/121/62 160/123/62 156/127/62
f 163/120/63 159/128/63 157/129/63 161/122/63
f 164/116/58 165/117/58 167/118/58 166/119/58
f 166/119/59 167/118/59 171/120/59 170/121/59
f 170/121/60 171/120/60 169/122/60 168/123/60
f 168/123/61 169/122/61 165/124/61 164/125/61
f 166/126/62 170/121/62 168/123/62 164/127/62
f 171/120/63 167/128/63 165/129/63 169/122/63
f 172/116/58 173/117/58 175/118/58 174/119/58
f 174/119/59 175/118/59 179/120/59 178/121/59
f 178/121/60 179/120/60 177/122/60 176/123/60
f 176/123/61 177/122/61 173/124/61 172/125/61
f 174/126/62 178/121/62 176/123/62 172/127/62
f 179/120/63 175/128/63 173/129/63 177/122/63
f 180/116/58 181/117/58 183/118/58 182/119/58
f 182/119/59 183/118/59 187/120/59 186/121/59
f 186/121/60 187/120/60 185/122/60 184/123/60
f 184/123/61 185/122/61 181/124/61 180/125/61
f 182/126/62 186/121/62 184/123/62 180/127/62
f 187/120/63 183/128/63 181/129/63 185/122/63
f 188/116/58 189/117/58 191/118/58 190/119/58
f 190/119/59 191/118/59 195/120/59 194/121/59
f 194/121/60 195/120/60 193/122/60 192/123/60
f 192/123/61 193/122/61 189/124/61 188/125/61
f 190/126/62 194/121/62 192/123/62 188/127/62
f 195/120/63 191/128/63 189/129/63 193/122/63
f 196/116/58 197/117/58 199/118/58 198/119/58
f 198/119/59 199/118/59 203/120/59 202/121/59
f 202/121/60 203/120/60 201/122/60 200/123/60
f 200/123/61 201/122/61 197/124/61 196/125/61
f 198/126/62 202/121/62 200/123/62 196/127/62
f 203/120/63 199/128/63 197/129/63 201/122/63
